<svg width="1440" height="79" viewBox="0 0 1440 79" fill="none" xmlns="http://www.w3.org/2000/svg">
<path d="M104.959 44V35.2727H108.07C108.749 35.2727 109.311 35.3963 109.757 35.6435C110.203 35.8906 110.537 36.2287 110.759 36.6577C110.98 37.0838 111.091 37.5639 111.091 38.098C111.091 38.6349 110.979 39.1179 110.754 39.5469C110.533 39.973 110.197 40.3111 109.749 40.5611C109.303 40.8082 108.741 40.9318 108.065 40.9318H105.926V39.8153H107.946C108.375 39.8153 108.723 39.7415 108.99 39.5938C109.257 39.4432 109.453 39.2386 109.578 38.9801C109.703 38.7216 109.766 38.4276 109.766 38.098C109.766 37.7685 109.703 37.4759 109.578 37.2202C109.453 36.9645 109.256 36.7642 108.986 36.6193C108.719 36.4744 108.366 36.402 107.929 36.402H106.276V44H104.959ZM112.532 44V37.4545H113.764V38.4943H113.832C113.951 38.142 114.162 37.8651 114.463 37.6634C114.767 37.4588 115.11 37.3565 115.494 37.3565C115.574 37.3565 115.667 37.3594 115.775 37.3651C115.886 37.3707 115.973 37.3778 116.035 37.3864V38.6051C115.984 38.5909 115.893 38.5753 115.762 38.5582C115.632 38.5384 115.501 38.5284 115.37 38.5284C115.069 38.5284 114.801 38.5923 114.565 38.7202C114.332 38.8452 114.147 39.0199 114.011 39.2443C113.875 39.4659 113.806 39.7187 113.806 40.0028V44H112.532ZM117.138 44V37.4545H118.412V44H117.138ZM117.781 36.4446C117.56 36.4446 117.369 36.3707 117.21 36.223C117.054 36.0724 116.976 35.8935 116.976 35.6861C116.976 35.4759 117.054 35.2969 117.21 35.1491C117.369 34.9986 117.56 34.9233 117.781 34.9233C118.003 34.9233 118.192 34.9986 118.348 35.1491C118.507 35.2969 118.587 35.4759 118.587 35.6861C118.587 35.8935 118.507 36.0724 118.348 36.223C118.192 36.3707 118.003 36.4446 117.781 36.4446ZM125.725 37.4545L123.352 44H121.988L119.61 37.4545H120.978L122.636 42.4915H122.704L124.358 37.4545H125.725ZM128.64 44.1449C128.225 44.1449 127.85 44.0682 127.515 43.9148C127.18 43.7585 126.914 43.5327 126.718 43.2372C126.525 42.9418 126.429 42.5795 126.429 42.1506C126.429 41.7812 126.5 41.4773 126.642 41.2386C126.784 41 126.975 40.8111 127.217 40.6719C127.458 40.5327 127.728 40.4276 128.027 40.3565C128.325 40.2855 128.629 40.2315 128.939 40.1946C129.331 40.1491 129.649 40.1122 129.893 40.0838C130.137 40.0526 130.315 40.0028 130.426 39.9347C130.537 39.8665 130.592 39.7557 130.592 39.6023V39.5724C130.592 39.2003 130.487 38.9119 130.277 38.7074C130.069 38.5028 129.76 38.4006 129.348 38.4006C128.919 38.4006 128.581 38.4957 128.333 38.6861C128.089 38.8736 127.92 39.0824 127.826 39.3125L126.629 39.0398C126.771 38.642 126.978 38.321 127.251 38.0767C127.527 37.8295 127.843 37.6506 128.201 37.5398C128.559 37.4261 128.936 37.3693 129.331 37.3693C129.592 37.3693 129.869 37.4006 130.162 37.4631C130.457 37.5227 130.733 37.6335 130.988 37.7955C131.247 37.9574 131.458 38.1889 131.623 38.4901C131.788 38.7884 131.87 39.1761 131.87 39.6534V44H130.626V43.1051H130.575C130.493 43.2699 130.369 43.4318 130.204 43.5909C130.039 43.75 129.828 43.8821 129.569 43.9872C129.311 44.0923 129.001 44.1449 128.64 44.1449ZM128.917 43.1222C129.27 43.1222 129.571 43.0526 129.821 42.9134C130.074 42.7741 130.265 42.5923 130.396 42.3679C130.529 42.1406 130.596 41.8977 130.596 41.6392V40.7955C130.551 40.8409 130.463 40.8835 130.332 40.9233C130.204 40.9602 130.058 40.9929 129.893 41.0213C129.728 41.0469 129.568 41.071 129.412 41.0938C129.255 41.1136 129.125 41.1307 129.02 41.1449C128.772 41.1761 128.547 41.2287 128.342 41.3026C128.14 41.3764 127.978 41.483 127.856 41.6222C127.737 41.7585 127.677 41.9403 127.677 42.1676C127.677 42.483 127.794 42.7216 128.027 42.8835C128.26 43.0426 128.556 43.1222 128.917 43.1222ZM136.325 44.1321C135.691 44.1321 135.146 43.9886 134.688 43.7017C134.234 43.4119 133.884 43.0128 133.64 42.5043C133.396 41.9957 133.273 41.4134 133.273 40.7571C133.273 40.0923 133.398 39.5057 133.648 38.9972C133.898 38.4858 134.251 38.0866 134.705 37.7997C135.16 37.5128 135.695 37.3693 136.312 37.3693C136.809 37.3693 137.252 37.4616 137.641 37.6463C138.031 37.8281 138.344 38.0838 138.583 38.4134C138.825 38.7429 138.968 39.1278 139.013 39.5682H137.773C137.705 39.2614 137.549 38.9972 137.305 38.7756C137.063 38.554 136.739 38.4432 136.333 38.4432C135.978 38.4432 135.667 38.5369 135.4 38.7244C135.136 38.9091 134.93 39.1733 134.782 39.517C134.634 39.858 134.56 40.2614 134.56 40.7273C134.56 41.2045 134.633 41.6165 134.778 41.9631C134.923 42.3097 135.127 42.5781 135.391 42.7685C135.658 42.9588 135.972 43.054 136.333 43.054C136.575 43.054 136.793 43.0099 136.989 42.9219C137.188 42.831 137.354 42.7017 137.488 42.5341C137.624 42.3665 137.719 42.1648 137.773 41.929H139.013C138.968 42.3523 138.83 42.7301 138.6 43.0625C138.37 43.3949 138.062 43.6562 137.675 43.8466C137.292 44.0369 136.842 44.1321 136.325 44.1321ZM141.181 46.4545C140.991 46.4545 140.818 46.4389 140.662 46.4077C140.505 46.3793 140.389 46.348 140.312 46.3139L140.619 45.2699C140.852 45.3324 141.059 45.3594 141.241 45.3509C141.423 45.3423 141.583 45.2741 141.723 45.1463C141.865 45.0185 141.99 44.8097 142.098 44.5199L142.255 44.0852L139.86 37.4545H141.224L142.882 42.5341H142.95L144.608 37.4545H145.975L143.278 44.8736C143.153 45.2145 142.994 45.5028 142.801 45.7386C142.608 45.9773 142.377 46.1563 142.11 46.2756C141.843 46.3949 141.534 46.4545 141.181 46.4545ZM150.451 44V35.2727H153.562C154.241 35.2727 154.803 35.3963 155.249 35.6435C155.695 35.8906 156.029 36.2287 156.251 36.6577C156.472 37.0838 156.583 37.5639 156.583 38.098C156.583 38.6349 156.471 39.1179 156.246 39.5469C156.025 39.973 155.69 40.3111 155.241 40.5611C154.795 40.8082 154.234 40.9318 153.558 40.9318H151.418V39.8153H153.438C153.867 39.8153 154.215 39.7415 154.482 39.5938C154.749 39.4432 154.945 39.2386 155.07 38.9801C155.195 38.7216 155.258 38.4276 155.258 38.098C155.258 37.7685 155.195 37.4759 155.07 37.2202C154.945 36.9645 154.748 36.7642 154.478 36.6193C154.211 36.4744 153.859 36.402 153.421 36.402H151.768V44H150.451ZM160.7 44.1321C160.086 44.1321 159.55 43.9915 159.093 43.7102C158.636 43.429 158.281 43.0355 158.028 42.5298C157.775 42.0241 157.648 41.4332 157.648 40.7571C157.648 40.0781 157.775 39.4844 158.028 38.9759C158.281 38.4673 158.636 38.0724 159.093 37.7912C159.55 37.5099 160.086 37.3693 160.7 37.3693C161.313 37.3693 161.849 37.5099 162.306 37.7912C162.763 38.0724 163.119 38.4673 163.371 38.9759C163.624 39.4844 163.751 40.0781 163.751 40.7571C163.751 41.4332 163.624 42.0241 163.371 42.5298C163.119 43.0355 162.763 43.429 162.306 43.7102C161.849 43.9915 161.313 44.1321 160.7 44.1321ZM160.704 43.0625C161.102 43.0625 161.431 42.9574 161.692 42.7472C161.954 42.5369 162.147 42.2571 162.272 41.9077C162.4 41.5582 162.464 41.1733 162.464 40.7528C162.464 40.3352 162.4 39.9517 162.272 39.6023C162.147 39.25 161.954 38.9673 161.692 38.7543C161.431 38.5412 161.102 38.4347 160.704 38.4347C160.303 38.4347 159.971 38.5412 159.707 38.7543C159.445 38.9673 159.251 39.25 159.123 39.6023C158.998 39.9517 158.935 40.3352 158.935 40.7528C158.935 41.1733 158.998 41.5582 159.123 41.9077C159.251 42.2571 159.445 42.5369 159.707 42.7472C159.971 42.9574 160.303 43.0625 160.704 43.0625ZM166.447 35.2727V44H165.173V35.2727H166.447ZM168.161 44V37.4545H169.435V44H168.161ZM168.805 36.4446C168.583 36.4446 168.393 36.3707 168.234 36.223C168.077 36.0724 167.999 35.8935 167.999 35.6861C167.999 35.4759 168.077 35.2969 168.234 35.1491C168.393 34.9986 168.583 34.9233 168.805 34.9233C169.026 34.9233 169.215 34.9986 169.371 35.1491C169.531 35.2969 169.61 35.4759 169.61 35.6861C169.61 35.8935 169.531 36.0724 169.371 36.223C169.215 36.3707 169.026 36.4446 168.805 36.4446ZM173.907 44.1321C173.273 44.1321 172.728 43.9886 172.27 43.7017C171.816 43.4119 171.466 43.0128 171.222 42.5043C170.978 41.9957 170.855 41.4134 170.855 40.7571C170.855 40.0923 170.98 39.5057 171.23 38.9972C171.48 38.4858 171.833 38.0866 172.287 37.7997C172.742 37.5128 173.277 37.3693 173.894 37.3693C174.391 37.3693 174.834 37.4616 175.223 37.6463C175.613 37.8281 175.926 38.0838 176.165 38.4134C176.407 38.7429 176.55 39.1278 176.596 39.5682H175.355C175.287 39.2614 175.131 38.9972 174.887 38.7756C174.645 38.554 174.321 38.4432 173.915 38.4432C173.56 38.4432 173.249 38.5369 172.982 38.7244C172.718 38.9091 172.512 39.1733 172.364 39.517C172.216 39.858 172.142 40.2614 172.142 40.7273C172.142 41.2045 172.215 41.6165 172.36 41.9631C172.505 42.3097 172.709 42.5781 172.973 42.7685C173.24 42.9588 173.554 43.054 173.915 43.054C174.157 43.054 174.375 43.0099 174.571 42.9219C174.77 42.831 174.936 42.7017 175.07 42.5341C175.206 42.3665 175.301 42.1648 175.355 41.929H176.596C176.55 42.3523 176.412 42.7301 176.182 43.0625C175.952 43.3949 175.644 43.6562 175.257 43.8466C174.874 44.0369 174.424 44.1321 173.907 44.1321ZM178.763 46.4545C178.573 46.4545 178.4 46.4389 178.244 46.4077C178.087 46.3793 177.971 46.348 177.894 46.3139L178.201 45.2699C178.434 45.3324 178.641 45.3594 178.823 45.3509C179.005 45.3423 179.165 45.2741 179.305 45.1463C179.447 45.0185 179.572 44.8097 179.68 44.5199L179.837 44.0852L177.442 37.4545H178.806L180.464 42.5341H180.532L182.19 37.4545H183.558L180.86 44.8736C180.735 45.2145 180.576 45.5028 180.383 45.7386C180.19 45.9773 179.96 46.1563 179.692 46.2756C179.425 46.3949 179.116 46.4545 178.763 46.4545ZM201.243 36.4062V35.2727H207.998V36.4062H205.275V44H203.962V36.4062H201.243ZM211.26 44.1321C210.615 44.1321 210.059 43.9943 209.593 43.7188C209.13 43.4403 208.772 43.0497 208.52 42.5469C208.27 42.0412 208.145 41.4489 208.145 40.7699C208.145 40.0994 208.27 39.5085 208.52 38.9972C208.772 38.4858 209.125 38.0866 209.576 37.7997C210.031 37.5128 210.562 37.3693 211.17 37.3693C211.539 37.3693 211.897 37.4304 212.244 37.5526C212.591 37.6747 212.902 37.8665 213.177 38.1278C213.453 38.3892 213.67 38.7287 213.829 39.1463C213.988 39.5611 214.068 40.0653 214.068 40.6591V41.1108H208.865V40.1562H212.819C212.819 39.821 212.751 39.5241 212.615 39.2656C212.478 39.0043 212.287 38.7983 212.039 38.6477C211.795 38.4972 211.508 38.4219 211.179 38.4219C210.821 38.4219 210.508 38.5099 210.241 38.6861C209.977 38.8594 209.772 39.0866 209.627 39.3679C209.485 39.6463 209.414 39.9489 209.414 40.2756V41.0213C209.414 41.4588 209.491 41.831 209.645 42.1378C209.801 42.4446 210.018 42.679 210.297 42.8409C210.575 43 210.9 43.0795 211.272 43.0795C211.514 43.0795 211.734 43.0455 211.933 42.9773C212.132 42.9062 212.304 42.8011 212.449 42.6619C212.593 42.5227 212.704 42.3509 212.781 42.1463L213.987 42.3636C213.89 42.7187 213.717 43.0298 213.467 43.2969C213.22 43.5611 212.909 43.767 212.534 43.9148C212.162 44.0597 211.737 44.1321 211.26 44.1321ZM215.482 44V37.4545H216.713V38.4943H216.781C216.901 38.142 217.111 37.8651 217.412 37.6634C217.716 37.4588 218.06 37.3565 218.443 37.3565C218.523 37.3565 218.616 37.3594 218.724 37.3651C218.835 37.3707 218.922 37.3778 218.984 37.3864V38.6051C218.933 38.5909 218.842 38.5753 218.712 38.5582C218.581 38.5384 218.45 38.5284 218.32 38.5284C218.018 38.5284 217.75 38.5923 217.514 38.7202C217.281 38.8452 217.097 39.0199 216.96 39.2443C216.824 39.4659 216.756 39.7187 216.756 40.0028V44H215.482ZM220.087 44V37.4545H221.31V38.5199H221.391C221.527 38.1591 221.75 37.8778 222.06 37.6761C222.37 37.4716 222.74 37.3693 223.172 37.3693C223.61 37.3693 223.976 37.4716 224.272 37.6761C224.57 37.8807 224.79 38.1619 224.932 38.5199H225C225.157 38.1705 225.405 37.892 225.746 37.6847C226.087 37.4744 226.493 37.3693 226.965 37.3693C227.559 37.3693 228.043 37.5554 228.418 37.9276C228.796 38.2997 228.985 38.8608 228.985 39.6108V44H227.711V39.7301C227.711 39.2869 227.59 38.9659 227.348 38.767C227.107 38.5682 226.819 38.4688 226.483 38.4688C226.069 38.4688 225.746 38.5966 225.516 38.8523C225.286 39.1051 225.171 39.4304 225.171 39.8281V44H223.901V39.6491C223.901 39.294 223.79 39.0085 223.569 38.7926C223.347 38.5767 223.059 38.4688 222.703 38.4688C222.462 38.4688 222.239 38.5327 222.034 38.6605C221.833 38.7855 221.669 38.9602 221.544 39.1847C221.422 39.4091 221.361 39.669 221.361 39.9645V44H220.087ZM235.597 39.0526L234.442 39.2571C234.394 39.1094 234.317 38.9687 234.212 38.8352C234.11 38.7017 233.971 38.5923 233.795 38.5071C233.619 38.4219 233.398 38.3793 233.134 38.3793C232.773 38.3793 232.472 38.4602 232.231 38.6222C231.989 38.7812 231.869 38.9872 231.869 39.2401C231.869 39.4588 231.95 39.6349 232.112 39.7685C232.273 39.902 232.535 40.0114 232.896 40.0966L233.935 40.3352C234.538 40.4744 234.987 40.6889 235.282 40.9787C235.577 41.2685 235.725 41.6449 235.725 42.108C235.725 42.5 235.612 42.8494 235.384 43.1562C235.16 43.4602 234.846 43.6989 234.442 43.8722C234.042 44.0455 233.577 44.1321 233.049 44.1321C232.316 44.1321 231.718 43.9759 231.255 43.6634C230.792 43.348 230.508 42.9006 230.403 42.321L231.634 42.1335C231.711 42.4545 231.869 42.6974 232.107 42.8622C232.346 43.0241 232.657 43.1051 233.04 43.1051C233.458 43.1051 233.792 43.0185 234.042 42.8452C234.292 42.669 234.417 42.4545 234.417 42.2017C234.417 41.9972 234.34 41.8253 234.187 41.6861C234.036 41.5469 233.805 41.4418 233.492 41.3707L232.384 41.1278C231.773 40.9886 231.322 40.767 231.029 40.4631C230.739 40.1591 230.594 39.7741 230.594 39.3082C230.594 38.9219 230.702 38.5838 230.918 38.294C231.134 38.0043 231.433 37.7784 231.813 37.6165C232.194 37.4517 232.63 37.3693 233.121 37.3693C233.829 37.3693 234.386 37.5227 234.792 37.8295C235.198 38.1335 235.467 38.5412 235.597 39.0526ZM243.059 44.1321C242.445 44.1321 241.91 43.9915 241.452 43.7102C240.995 43.429 240.64 43.0355 240.387 42.5298C240.134 42.0241 240.008 41.4332 240.008 40.7571C240.008 40.0781 240.134 39.4844 240.387 38.9759C240.64 38.4673 240.995 38.0724 241.452 37.7912C241.91 37.5099 242.445 37.3693 243.059 37.3693C243.673 37.3693 244.208 37.5099 244.665 37.7912C245.123 38.0724 245.478 38.4673 245.731 38.9759C245.984 39.4844 246.11 40.0781 246.11 40.7571C246.11 41.4332 245.984 42.0241 245.731 42.5298C245.478 43.0355 245.123 43.429 244.665 43.7102C244.208 43.9915 243.673 44.1321 243.059 44.1321ZM243.063 43.0625C243.461 43.0625 243.79 42.9574 244.052 42.7472C244.313 42.5369 244.506 42.2571 244.631 41.9077C244.759 41.5582 244.823 41.1733 244.823 40.7528C244.823 40.3352 244.759 39.9517 244.631 39.6023C244.506 39.25 244.313 38.9673 244.052 38.7543C243.79 38.5412 243.461 38.4347 243.063 38.4347C242.663 38.4347 242.33 38.5412 242.066 38.7543C241.805 38.9673 241.61 39.25 241.482 39.6023C241.357 39.9517 241.295 40.3352 241.295 40.7528C241.295 41.1733 241.357 41.5582 241.482 41.9077C241.61 42.2571 241.805 42.5369 242.066 42.7472C242.33 42.9574 242.663 43.0625 243.063 43.0625ZM250.647 37.4545V38.4773H246.949V37.4545H250.647ZM247.963 44V36.696C247.963 36.2869 248.052 35.9474 248.231 35.6776C248.41 35.4048 248.647 35.2017 248.943 35.0682C249.238 34.9318 249.559 34.8636 249.906 34.8636C250.162 34.8636 250.38 34.8849 250.562 34.9276C250.744 34.9673 250.879 35.0043 250.967 35.0384L250.669 36.0696C250.609 36.0526 250.532 36.0327 250.439 36.0099C250.345 35.9844 250.231 35.9716 250.098 35.9716C249.788 35.9716 249.566 36.0483 249.433 36.2017C249.302 36.3551 249.237 36.5767 249.237 36.8665V44H247.963ZM262.489 38.1108H261.159C261.108 37.8267 261.013 37.5767 260.874 37.3608C260.734 37.1449 260.564 36.9616 260.362 36.8111C260.161 36.6605 259.935 36.5469 259.685 36.4702C259.438 36.3935 259.175 36.3551 258.896 36.3551C258.393 36.3551 257.943 36.4815 257.545 36.7344C257.151 36.9872 256.838 37.358 256.608 37.8466C256.381 38.3352 256.267 38.9318 256.267 39.6364C256.267 40.3466 256.381 40.946 256.608 41.4347C256.838 41.9233 257.152 42.2926 257.55 42.5426C257.947 42.7926 258.395 42.9176 258.892 42.9176C259.168 42.9176 259.429 42.8807 259.676 42.8068C259.926 42.7301 260.152 42.6179 260.354 42.4702C260.555 42.3224 260.726 42.142 260.865 41.929C261.007 41.7131 261.105 41.4659 261.159 41.1875L262.489 41.1918C262.418 41.6207 262.28 42.0156 262.075 42.3764C261.874 42.7344 261.614 43.044 261.295 43.3054C260.98 43.5639 260.619 43.7642 260.213 43.9062C259.807 44.0483 259.364 44.1193 258.884 44.1193C258.128 44.1193 257.455 43.9403 256.864 43.5824C256.273 43.2216 255.807 42.706 255.466 42.0355C255.128 41.3651 254.959 40.5653 254.959 39.6364C254.959 38.7045 255.129 37.9048 255.47 37.2372C255.811 36.5668 256.277 36.0526 256.868 35.6946C257.459 35.3338 258.131 35.1534 258.884 35.1534C259.347 35.1534 259.778 35.2202 260.179 35.3537C260.582 35.4844 260.945 35.6776 261.266 35.9332C261.587 36.1861 261.852 36.4957 262.062 36.8622C262.273 37.2259 262.415 37.642 262.489 38.1108ZM266.719 44.1321C266.105 44.1321 265.57 43.9915 265.113 43.7102C264.655 43.429 264.3 43.0355 264.047 42.5298C263.794 42.0241 263.668 41.4332 263.668 40.7571C263.668 40.0781 263.794 39.4844 264.047 38.9759C264.3 38.4673 264.655 38.0724 265.113 37.7912C265.57 37.5099 266.105 37.3693 266.719 37.3693C267.333 37.3693 267.868 37.5099 268.326 37.7912C268.783 38.0724 269.138 38.4673 269.391 38.9759C269.644 39.4844 269.77 40.0781 269.77 40.7571C269.77 41.4332 269.644 42.0241 269.391 42.5298C269.138 43.0355 268.783 43.429 268.326 43.7102C267.868 43.9915 267.333 44.1321 266.719 44.1321ZM266.723 43.0625C267.121 43.0625 267.451 42.9574 267.712 42.7472C267.973 42.5369 268.167 42.2571 268.292 41.9077C268.419 41.5582 268.483 41.1733 268.483 40.7528C268.483 40.3352 268.419 39.9517 268.292 39.6023C268.167 39.25 267.973 38.9673 267.712 38.7543C267.451 38.5412 267.121 38.4347 266.723 38.4347C266.323 38.4347 265.99 38.5412 265.726 38.7543C265.465 38.9673 265.27 39.25 265.142 39.6023C265.017 39.9517 264.955 40.3352 264.955 40.7528C264.955 41.1733 265.017 41.5582 265.142 41.9077C265.27 42.2571 265.465 42.5369 265.726 42.7472C265.99 42.9574 266.323 43.0625 266.723 43.0625ZM272.467 40.1136V44H271.192V37.4545H272.415V38.5199H272.496C272.647 38.1733 272.883 37.8949 273.204 37.6847C273.528 37.4744 273.935 37.3693 274.427 37.3693C274.873 37.3693 275.263 37.4631 275.599 37.6506C275.934 37.8352 276.194 38.1108 276.379 38.4773C276.563 38.8437 276.656 39.2969 276.656 39.8366V44H275.381V39.9901C275.381 39.5156 275.258 39.1449 275.011 38.8778C274.763 38.608 274.424 38.473 273.992 38.473C273.697 38.473 273.434 38.5369 273.204 38.6648C272.977 38.7926 272.796 38.9801 272.663 39.2273C272.532 39.4716 272.467 39.767 272.467 40.1136ZM280.815 44.1278C280.286 44.1278 279.815 43.9929 279.4 43.723C278.988 43.4503 278.664 43.0625 278.428 42.5597C278.195 42.054 278.079 41.4474 278.079 40.7401C278.079 40.0327 278.197 39.4276 278.433 38.9247C278.671 38.4219 278.998 38.0369 279.413 37.7699C279.827 37.5028 280.298 37.3693 280.823 37.3693C281.229 37.3693 281.556 37.4375 281.803 37.5739C282.053 37.7074 282.246 37.8636 282.383 38.0426C282.522 38.2216 282.63 38.3793 282.707 38.5156H282.783V35.2727H284.058V44H282.813V42.9815H282.707C282.63 43.1207 282.519 43.2798 282.374 43.4588C282.232 43.6378 282.036 43.794 281.786 43.9276C281.536 44.0611 281.212 44.1278 280.815 44.1278ZM281.096 43.0412C281.462 43.0412 281.772 42.9446 282.025 42.7514C282.281 42.5554 282.474 42.2841 282.604 41.9375C282.738 41.5909 282.805 41.1875 282.805 40.7273C282.805 40.2727 282.739 39.875 282.609 39.5341C282.478 39.1932 282.286 38.9276 282.033 38.7372C281.781 38.5469 281.468 38.4517 281.096 38.4517C280.712 38.4517 280.393 38.5511 280.137 38.75C279.881 38.9489 279.688 39.2202 279.558 39.5639C279.43 39.9077 279.366 40.2955 279.366 40.7273C279.366 41.1648 279.431 41.5582 279.562 41.9077C279.692 42.2571 279.886 42.5341 280.141 42.7386C280.4 42.9403 280.718 43.0412 281.096 43.0412ZM285.876 44V37.4545H287.15V44H285.876ZM286.52 36.4446C286.298 36.4446 286.108 36.3707 285.949 36.223C285.792 36.0724 285.714 35.8935 285.714 35.6861C285.714 35.4759 285.792 35.2969 285.949 35.1491C286.108 34.9986 286.298 34.9233 286.52 34.9233C286.741 34.9233 286.93 34.9986 287.086 35.1491C287.245 35.2969 287.325 35.4759 287.325 35.6861C287.325 35.8935 287.245 36.0724 287.086 36.223C286.93 36.3707 286.741 36.4446 286.52 36.4446ZM291.92 37.4545V38.4773H288.344V37.4545H291.92ZM289.303 35.8864H290.577V42.0781C290.577 42.3253 290.614 42.5114 290.688 42.6364C290.762 42.7585 290.857 42.8423 290.974 42.8878C291.093 42.9304 291.222 42.9517 291.362 42.9517C291.464 42.9517 291.553 42.9446 291.63 42.9304C291.707 42.9162 291.766 42.9048 291.809 42.8963L292.039 43.9489C291.965 43.9773 291.86 44.0057 291.724 44.0341C291.587 44.0653 291.417 44.0824 291.212 44.0852C290.877 44.0909 290.565 44.0312 290.275 43.9062C289.985 43.7812 289.751 43.5881 289.572 43.3267C289.393 43.0653 289.303 42.7372 289.303 42.3423V35.8864ZM293.329 44V37.4545H294.603V44H293.329ZM293.973 36.4446C293.751 36.4446 293.561 36.3707 293.402 36.223C293.245 36.0724 293.167 35.8935 293.167 35.6861C293.167 35.4759 293.245 35.2969 293.402 35.1491C293.561 34.9986 293.751 34.9233 293.973 34.9233C294.194 34.9233 294.383 34.9986 294.539 35.1491C294.699 35.2969 294.778 35.4759 294.778 35.6861C294.778 35.8935 294.699 36.0724 294.539 36.223C294.383 36.3707 294.194 36.4446 293.973 36.4446ZM299.075 44.1321C298.461 44.1321 297.925 43.9915 297.468 43.7102C297.011 43.429 296.656 43.0355 296.403 42.5298C296.15 42.0241 296.023 41.4332 296.023 40.7571C296.023 40.0781 296.15 39.4844 296.403 38.9759C296.656 38.4673 297.011 38.0724 297.468 37.7912C297.925 37.5099 298.461 37.3693 299.075 37.3693C299.688 37.3693 300.224 37.5099 300.681 37.7912C301.138 38.0724 301.494 38.4673 301.746 38.9759C301.999 39.4844 302.126 40.0781 302.126 40.7571C302.126 41.4332 301.999 42.0241 301.746 42.5298C301.494 43.0355 301.138 43.429 300.681 43.7102C300.224 43.9915 299.688 44.1321 299.075 44.1321ZM299.079 43.0625C299.477 43.0625 299.806 42.9574 300.067 42.7472C300.329 42.5369 300.522 42.2571 300.647 41.9077C300.775 41.5582 300.839 41.1733 300.839 40.7528C300.839 40.3352 300.775 39.9517 300.647 39.6023C300.522 39.25 300.329 38.9673 300.067 38.7543C299.806 38.5412 299.477 38.4347 299.079 38.4347C298.678 38.4347 298.346 38.5412 298.082 38.7543C297.82 38.9673 297.626 39.25 297.498 39.6023C297.373 39.9517 297.31 40.3352 297.31 40.7528C297.31 41.1733 297.373 41.5582 297.498 41.9077C297.626 42.2571 297.82 42.5369 298.082 42.7472C298.346 42.9574 298.678 43.0625 299.079 43.0625ZM304.822 40.1136V44H303.548V37.4545H304.771V38.5199H304.852C305.002 38.1733 305.238 37.8949 305.559 37.6847C305.883 37.4744 306.291 37.3693 306.782 37.3693C307.228 37.3693 307.619 37.4631 307.954 37.6506C308.289 37.8352 308.549 38.1108 308.734 38.4773C308.919 38.8437 309.011 39.2969 309.011 39.8366V44H307.737V39.9901C307.737 39.5156 307.613 39.1449 307.366 38.8778C307.119 38.608 306.779 38.473 306.348 38.473C306.052 38.473 305.789 38.5369 305.559 38.6648C305.332 38.7926 305.152 38.9801 305.018 39.2273C304.887 39.4716 304.822 39.767 304.822 40.1136ZM315.625 39.0526L314.47 39.2571C314.422 39.1094 314.345 38.9687 314.24 38.8352C314.137 38.7017 313.998 38.5923 313.822 38.5071C313.646 38.4219 313.426 38.3793 313.162 38.3793C312.801 38.3793 312.5 38.4602 312.258 38.6222C312.017 38.7812 311.896 38.9872 311.896 39.2401C311.896 39.4588 311.977 39.6349 312.139 39.7685C312.301 39.902 312.562 40.0114 312.923 40.0966L313.963 40.3352C314.565 40.4744 315.014 40.6889 315.309 40.9787C315.605 41.2685 315.752 41.6449 315.752 42.108C315.752 42.5 315.639 42.8494 315.412 43.1562C315.187 43.4602 314.873 43.6989 314.47 43.8722C314.069 44.0455 313.605 44.1321 313.076 44.1321C312.343 44.1321 311.745 43.9759 311.282 43.6634C310.819 43.348 310.535 42.9006 310.43 42.321L311.662 42.1335C311.738 42.4545 311.896 42.6974 312.135 42.8622C312.373 43.0241 312.684 43.1051 313.068 43.1051C313.485 43.1051 313.819 43.0185 314.069 42.8452C314.319 42.669 314.444 42.4545 314.444 42.2017C314.444 41.9972 314.368 41.8253 314.214 41.6861C314.064 41.5469 313.832 41.4418 313.52 41.3707L312.412 41.1278C311.801 40.9886 311.349 40.767 311.056 40.4631C310.767 40.1591 310.622 39.7741 310.622 39.3082C310.622 38.9219 310.73 38.5838 310.946 38.294C311.162 38.0043 311.46 37.7784 311.841 37.6165C312.221 37.4517 312.657 37.3693 313.149 37.3693C313.856 37.3693 314.413 37.5227 314.819 37.8295C315.225 38.1335 315.494 38.5412 315.625 39.0526Z" fill="#FFFCFF"/>
<path d="M192.875 32.4602V46.8125H191.733V32.4602H192.875Z" fill="#FFFCFF" fill-opacity="0.5"/>
<path d="M1180.04 39.6364C1180.04 39.179 1180.15 38.7614 1180.38 38.3835C1180.6 38.0057 1180.9 37.706 1181.27 37.4844C1181.65 37.2599 1182.07 37.1477 1182.53 37.1477C1182.92 37.1477 1183.29 37.2344 1183.63 37.4077C1183.97 37.5781 1184.25 37.8125 1184.47 38.1108C1184.69 38.4091 1184.83 38.7443 1184.88 39.1165H1183.77C1183.72 38.8523 1183.57 38.6364 1183.33 38.4688C1183.1 38.2983 1182.83 38.2131 1182.53 38.2131C1182.27 38.2131 1182.03 38.277 1181.81 38.4048C1181.6 38.5327 1181.42 38.7045 1181.3 38.9205C1181.17 39.1335 1181.1 39.3722 1181.1 39.6364C1181.1 39.8977 1181.17 40.1364 1181.3 40.3523C1181.42 40.5682 1181.6 40.7401 1181.81 40.8679C1182.03 40.9957 1182.27 41.0597 1182.53 41.0597C1182.83 41.0597 1183.09 40.9759 1183.3 40.8082C1183.51 40.6378 1183.64 40.4205 1183.7 40.1562H1184.81C1184.76 40.5284 1184.63 40.8636 1184.42 41.1619C1184.21 41.4602 1183.94 41.696 1183.61 41.8693C1183.29 42.0398 1182.92 42.125 1182.53 42.125C1182.07 42.125 1181.65 42.0142 1181.27 41.7926C1180.9 41.5682 1180.6 41.267 1180.38 40.8892C1180.15 40.5114 1180.04 40.0938 1180.04 39.6364ZM1182.49 44.1364C1181.87 44.1364 1181.29 44.0199 1180.74 43.7869C1180.2 43.554 1179.72 43.2315 1179.31 42.8196C1178.89 42.4048 1178.57 41.9261 1178.33 41.3835C1178.1 40.8409 1177.99 40.2585 1177.99 39.6364C1177.99 39.0142 1178.11 38.4318 1178.34 37.8892C1178.58 37.3466 1178.9 36.8693 1179.31 36.4574C1179.73 36.0426 1180.2 35.7187 1180.75 35.4858C1181.29 35.2528 1181.87 35.1364 1182.49 35.1364C1183.11 35.1364 1183.69 35.2528 1184.24 35.4858C1184.78 35.7187 1185.26 36.0426 1185.67 36.4574C1186.08 36.8693 1186.4 37.3466 1186.63 37.8892C1186.87 38.4318 1186.99 39.0142 1186.99 39.6364C1186.99 40.2585 1186.88 40.8409 1186.64 41.3835C1186.41 41.9261 1186.09 42.4048 1185.68 42.8196C1185.26 43.2315 1184.79 43.554 1184.24 43.7869C1183.69 44.0199 1183.11 44.1364 1182.49 44.1364ZM1182.49 43.0028C1182.95 43.0028 1183.39 42.9162 1183.8 42.7429C1184.21 42.5696 1184.57 42.3295 1184.88 42.0227C1185.18 41.7131 1185.43 41.3551 1185.6 40.9489C1185.77 40.5398 1185.86 40.1037 1185.86 39.6406C1185.86 39.1747 1185.77 38.7372 1185.59 38.3281C1185.42 37.919 1185.18 37.5611 1184.87 37.2543C1184.56 36.9446 1184.2 36.7031 1183.8 36.5298C1183.39 36.3565 1182.95 36.2699 1182.49 36.2699C1182.03 36.2699 1181.59 36.3565 1181.18 36.5298C1180.78 36.7031 1180.42 36.9446 1180.11 37.2543C1179.8 37.5639 1179.56 37.9233 1179.39 38.3324C1179.21 38.7386 1179.12 39.1747 1179.12 39.6406C1179.12 40.1009 1179.2 40.5355 1179.38 40.9446C1179.55 41.3509 1179.8 41.7088 1180.1 42.0185C1180.41 42.3253 1180.77 42.5668 1181.18 42.7429C1181.59 42.9162 1182.02 43.0028 1182.49 43.0028ZM1192 44V43.0455L1194.95 39.9858C1195.26 39.6534 1195.52 39.3622 1195.73 39.1122C1195.94 38.8594 1196.09 38.6193 1196.19 38.392C1196.3 38.1648 1196.35 37.9233 1196.35 37.6676C1196.35 37.3778 1196.28 37.1278 1196.14 36.9176C1196.01 36.7045 1195.82 36.5412 1195.58 36.4276C1195.35 36.3111 1195.08 36.2528 1194.79 36.2528C1194.47 36.2528 1194.2 36.3168 1193.97 36.4446C1193.74 36.5724 1193.56 36.7528 1193.43 36.9858C1193.31 37.2187 1193.24 37.4915 1193.24 37.804H1191.99C1191.99 37.2727 1192.11 36.8082 1192.35 36.4105C1192.6 36.0128 1192.93 35.7045 1193.36 35.4858C1193.79 35.2642 1194.27 35.1534 1194.81 35.1534C1195.36 35.1534 1195.84 35.2628 1196.26 35.4815C1196.68 35.6974 1197.01 35.9929 1197.25 36.3679C1197.48 36.7401 1197.6 37.1605 1197.6 37.6293C1197.6 37.9531 1197.54 38.2699 1197.42 38.5795C1197.3 38.8892 1197.09 39.2344 1196.79 39.6151C1196.49 39.9929 1196.08 40.4517 1195.55 40.9915L1193.81 42.8068V42.8707H1197.74V44H1192ZM1202.39 44.1449C1201.72 44.142 1201.14 43.9645 1200.67 43.6122C1200.19 43.2599 1199.83 42.7472 1199.57 42.0739C1199.32 41.4006 1199.19 40.5895 1199.19 39.6406C1199.19 38.6946 1199.32 37.8864 1199.57 37.2159C1199.83 36.5455 1200.19 36.0341 1200.67 35.6818C1201.15 35.3295 1201.73 35.1534 1202.39 35.1534C1203.06 35.1534 1203.63 35.331 1204.11 35.6861C1204.59 36.0384 1204.95 36.5497 1205.21 37.2202C1205.46 37.8878 1205.59 38.6946 1205.59 39.6406C1205.59 40.5923 1205.46 41.4048 1205.21 42.0781C1204.96 42.7486 1204.59 43.2614 1204.12 43.6165C1203.64 43.9688 1203.06 44.1449 1202.39 44.1449ZM1202.39 43.0071C1202.98 43.0071 1203.45 42.7188 1203.78 42.142C1204.11 41.5653 1204.28 40.7315 1204.28 39.6406C1204.28 38.9162 1204.2 38.304 1204.05 37.804C1203.9 37.3011 1203.68 36.9205 1203.4 36.6619C1203.12 36.4006 1202.78 36.2699 1202.39 36.2699C1201.81 36.2699 1201.34 36.5597 1201.01 37.1392C1200.67 37.7187 1200.5 38.5526 1200.5 39.6406C1200.5 40.3679 1200.58 40.983 1200.73 41.4858C1200.88 41.9858 1201.1 42.3651 1201.38 42.6236C1201.66 42.8793 1202 43.0071 1202.39 43.0071ZM1207.1 44V43.0455L1210.05 39.9858C1210.37 39.6534 1210.63 39.3622 1210.83 39.1122C1211.04 38.8594 1211.2 38.6193 1211.3 38.392C1211.4 38.1648 1211.45 37.9233 1211.45 37.6676C1211.45 37.3778 1211.38 37.1278 1211.25 36.9176C1211.11 36.7045 1210.93 36.5412 1210.69 36.4276C1210.45 36.3111 1210.19 36.2528 1209.89 36.2528C1209.58 36.2528 1209.31 36.3168 1209.07 36.4446C1208.84 36.5724 1208.66 36.7528 1208.54 36.9858C1208.41 37.2187 1208.35 37.4915 1208.35 37.804H1207.09C1207.09 37.2727 1207.21 36.8082 1207.46 36.4105C1207.7 36.0128 1208.04 35.7045 1208.46 35.4858C1208.89 35.2642 1209.38 35.1534 1209.92 35.1534C1210.47 35.1534 1210.95 35.2628 1211.37 35.4815C1211.79 35.6974 1212.12 35.9929 1212.35 36.3679C1212.59 36.7401 1212.7 37.1605 1212.7 37.6293C1212.7 37.9531 1212.64 38.2699 1212.52 38.5795C1212.4 38.8892 1212.19 39.2344 1211.9 39.6151C1211.6 39.9929 1211.18 40.4517 1210.65 40.9915L1208.92 42.8068V42.8707H1212.85V44H1207.1ZM1214.09 42.2955V41.2301L1217.86 35.2727H1218.7V36.8409H1218.17L1215.47 41.1108V41.179H1220.64V42.2955H1214.09ZM1218.23 44V41.9716L1218.24 41.4858V35.2727H1219.48V44H1218.23ZM1226.16 44H1224.76L1227.9 35.2727H1229.42L1232.56 44H1231.16L1228.7 36.858H1228.63L1226.16 44ZM1226.39 40.5824H1230.93V41.6903H1226.39V40.5824ZM1234.99 35.2727V44H1233.72V35.2727H1234.99ZM1237.98 35.2727V44H1236.71V35.2727H1237.98ZM1242.97 44V35.2727H1246.09C1246.76 35.2727 1247.32 35.3892 1247.77 35.6222C1248.22 35.8551 1248.55 36.1776 1248.77 36.5895C1249 36.9986 1249.11 37.4716 1249.11 38.0085C1249.11 38.5426 1248.99 39.0128 1248.77 39.419C1248.55 39.8224 1248.21 40.1364 1247.76 40.3608C1247.32 40.5852 1246.76 40.6974 1246.08 40.6974H1243.72V39.5639H1245.96C1246.39 39.5639 1246.73 39.5028 1247 39.3807C1247.27 39.2585 1247.47 39.081 1247.59 38.848C1247.72 38.6151 1247.78 38.3352 1247.78 38.0085C1247.78 37.679 1247.72 37.3935 1247.59 37.152C1247.46 36.9105 1247.27 36.7259 1247 36.598C1246.73 36.4673 1246.38 36.402 1245.94 36.402H1244.29V44H1242.97ZM1247.28 40.0625L1249.44 44H1247.94L1245.83 40.0625H1247.28ZM1250.61 44V37.4545H1251.88V44H1250.61ZM1251.25 36.4446C1251.03 36.4446 1250.84 36.3707 1250.68 36.223C1250.52 36.0724 1250.44 35.8935 1250.44 35.6861C1250.44 35.4759 1250.52 35.2969 1250.68 35.1491C1250.84 34.9986 1251.03 34.9233 1251.25 34.9233C1251.47 34.9233 1251.66 34.9986 1251.82 35.1491C1251.98 35.2969 1252.06 35.4759 1252.06 35.6861C1252.06 35.8935 1251.98 36.0724 1251.82 36.223C1251.66 36.3707 1251.47 36.4446 1251.25 36.4446ZM1256.34 46.5909C1255.82 46.5909 1255.37 46.5227 1255 46.3864C1254.62 46.25 1254.32 46.0696 1254.08 45.8452C1253.85 45.6207 1253.67 45.375 1253.56 45.108L1254.65 44.6562C1254.73 44.7812 1254.83 44.9134 1254.96 45.0526C1255.09 45.1946 1255.27 45.3153 1255.49 45.4148C1255.71 45.5142 1256 45.5639 1256.35 45.5639C1256.83 45.5639 1257.23 45.446 1257.55 45.2102C1257.86 44.9773 1258.02 44.6051 1258.02 44.0938V42.8068H1257.94C1257.86 42.946 1257.75 43.1009 1257.61 43.2713C1257.47 43.4418 1257.27 43.5895 1257.02 43.7145C1256.77 43.8395 1256.45 43.902 1256.05 43.902C1255.53 43.902 1255.06 43.7812 1254.65 43.5398C1254.24 43.2955 1253.91 42.9361 1253.67 42.4616C1253.43 41.9844 1253.31 41.3977 1253.31 40.7017C1253.31 40.0057 1253.43 39.4091 1253.66 38.9119C1253.9 38.4148 1254.23 38.0341 1254.64 37.7699C1255.06 37.5028 1255.53 37.3693 1256.05 37.3693C1256.46 37.3693 1256.79 37.4375 1257.04 37.5739C1257.29 37.7074 1257.48 37.8636 1257.62 38.0426C1257.76 38.2216 1257.87 38.3793 1257.95 38.5156H1258.04V37.4545H1259.29V44.1449C1259.29 44.7074 1259.16 45.169 1258.9 45.5298C1258.64 45.8906 1258.29 46.1577 1257.84 46.331C1257.4 46.5043 1256.9 46.5909 1256.34 46.5909ZM1256.33 42.8452C1256.69 42.8452 1257 42.7599 1257.26 42.5895C1257.51 42.4162 1257.7 42.169 1257.83 41.848C1257.97 41.5241 1258.04 41.1364 1258.04 40.6847C1258.04 40.2443 1257.97 39.8565 1257.84 39.5213C1257.71 39.1861 1257.52 38.9247 1257.26 38.7372C1257.01 38.5469 1256.7 38.4517 1256.33 38.4517C1255.94 38.4517 1255.62 38.5511 1255.37 38.75C1255.11 38.946 1254.92 39.2131 1254.79 39.5511C1254.66 39.8892 1254.6 40.267 1254.6 40.6847C1254.6 41.1136 1254.66 41.4901 1254.79 41.8139C1254.92 42.1378 1255.12 42.3906 1255.37 42.5724C1255.63 42.7543 1255.95 42.8452 1256.33 42.8452ZM1262.28 40.1136V44H1261V35.2727H1262.26V38.5199H1262.34C1262.49 38.1676 1262.73 37.8878 1263.04 37.6804C1263.36 37.473 1263.77 37.3693 1264.28 37.3693C1264.73 37.3693 1265.12 37.4616 1265.45 37.6463C1265.79 37.831 1266.05 38.1065 1266.24 38.473C1266.43 38.8366 1266.52 39.2912 1266.52 39.8366V44H1265.25V39.9901C1265.25 39.5099 1265.12 39.1378 1264.87 38.8736C1264.63 38.6065 1264.28 38.473 1263.84 38.473C1263.54 38.473 1263.27 38.5369 1263.03 38.6648C1262.8 38.7926 1262.61 38.9801 1262.48 39.2273C1262.34 39.4716 1262.28 39.767 1262.28 40.1136ZM1271.28 37.4545V38.4773H1267.7V37.4545H1271.28ZM1268.66 35.8864H1269.93V42.0781C1269.93 42.3253 1269.97 42.5114 1270.04 42.6364C1270.12 42.7585 1270.21 42.8423 1270.33 42.8878C1270.45 42.9304 1270.58 42.9517 1270.72 42.9517C1270.82 42.9517 1270.91 42.9446 1270.99 42.9304C1271.06 42.9162 1271.12 42.9048 1271.16 42.8963L1271.39 43.9489C1271.32 43.9773 1271.22 44.0057 1271.08 44.0341C1270.94 44.0653 1270.77 44.0824 1270.57 44.0852C1270.23 44.0909 1269.92 44.0312 1269.63 43.9062C1269.34 43.7812 1269.11 43.5881 1268.93 43.3267C1268.75 43.0653 1268.66 42.7372 1268.66 42.3423V35.8864ZM1277.48 39.0526L1276.33 39.2571C1276.28 39.1094 1276.2 38.9687 1276.1 38.8352C1276 38.7017 1275.86 38.5923 1275.68 38.5071C1275.51 38.4219 1275.29 38.3793 1275.02 38.3793C1274.66 38.3793 1274.36 38.4602 1274.12 38.6222C1273.88 38.7812 1273.76 38.9872 1273.76 39.2401C1273.76 39.4588 1273.84 39.6349 1274 39.7685C1274.16 39.902 1274.42 40.0114 1274.78 40.0966L1275.82 40.3352C1276.42 40.4744 1276.87 40.6889 1277.17 40.9787C1277.46 41.2685 1277.61 41.6449 1277.61 42.108C1277.61 42.5 1277.5 42.8494 1277.27 43.1562C1277.05 43.4602 1276.73 43.6989 1276.33 43.8722C1275.93 44.0455 1275.46 44.1321 1274.94 44.1321C1274.2 44.1321 1273.6 43.9759 1273.14 43.6634C1272.68 43.348 1272.39 42.9006 1272.29 42.321L1273.52 42.1335C1273.6 42.4545 1273.76 42.6974 1273.99 42.8622C1274.23 43.0241 1274.54 43.1051 1274.93 43.1051C1275.34 43.1051 1275.68 43.0185 1275.93 42.8452C1276.18 42.669 1276.3 42.4545 1276.3 42.2017C1276.3 41.9972 1276.23 41.8253 1276.07 41.6861C1275.92 41.5469 1275.69 41.4418 1275.38 41.3707L1274.27 41.1278C1273.66 40.9886 1273.21 40.767 1272.92 40.4631C1272.63 40.1591 1272.48 39.7741 1272.48 39.3082C1272.48 38.9219 1272.59 38.5838 1272.81 38.294C1273.02 38.0043 1273.32 37.7784 1273.7 37.6165C1274.08 37.4517 1274.52 37.3693 1275.01 37.3693C1275.72 37.3693 1276.27 37.5227 1276.68 37.8295C1277.08 38.1335 1277.35 38.5412 1277.48 39.0526ZM1282.29 44V35.2727H1285.4C1286.08 35.2727 1286.64 35.3892 1287.08 35.6222C1287.53 35.8551 1287.87 36.1776 1288.09 36.5895C1288.31 36.9986 1288.42 37.4716 1288.42 38.0085C1288.42 38.5426 1288.31 39.0128 1288.09 39.419C1287.86 39.8224 1287.53 40.1364 1287.08 40.3608C1286.63 40.5852 1286.07 40.6974 1285.4 40.6974H1283.04V39.5639H1285.28C1285.7 39.5639 1286.05 39.5028 1286.32 39.3807C1286.59 39.2585 1286.79 39.081 1286.91 38.848C1287.04 38.6151 1287.1 38.3352 1287.1 38.0085C1287.1 37.679 1287.03 37.3935 1286.91 37.152C1286.78 36.9105 1286.58 36.7259 1286.31 36.598C1286.05 36.4673 1285.7 36.402 1285.26 36.402H1283.61V44H1282.29ZM1286.6 40.0625L1288.76 44H1287.26L1285.14 40.0625H1286.6ZM1292.66 44.1321C1292.02 44.1321 1291.46 43.9943 1291 43.7188C1290.53 43.4403 1290.17 43.0497 1289.92 42.5469C1289.67 42.0412 1289.55 41.4489 1289.55 40.7699C1289.55 40.0994 1289.67 39.5085 1289.92 38.9972C1290.17 38.4858 1290.53 38.0866 1290.98 37.7997C1291.43 37.5128 1291.96 37.3693 1292.57 37.3693C1292.94 37.3693 1293.3 37.4304 1293.65 37.5526C1293.99 37.6747 1294.3 37.8665 1294.58 38.1278C1294.86 38.3892 1295.07 38.7287 1295.23 39.1463C1295.39 39.5611 1295.47 40.0653 1295.47 40.6591V41.1108H1290.27V40.1562H1294.22C1294.22 39.821 1294.15 39.5241 1294.02 39.2656C1293.88 39.0043 1293.69 38.7983 1293.44 38.6477C1293.2 38.4972 1292.91 38.4219 1292.58 38.4219C1292.22 38.4219 1291.91 38.5099 1291.64 38.6861C1291.38 38.8594 1291.17 39.0866 1291.03 39.3679C1290.89 39.6463 1290.82 39.9489 1290.82 40.2756V41.0213C1290.82 41.4588 1290.89 41.831 1291.05 42.1378C1291.2 42.4446 1291.42 42.679 1291.7 42.8409C1291.98 43 1292.3 43.0795 1292.67 43.0795C1292.92 43.0795 1293.14 43.0455 1293.34 42.9773C1293.53 42.9062 1293.71 42.8011 1293.85 42.6619C1294 42.5227 1294.11 42.3509 1294.18 42.1463L1295.39 42.3636C1295.29 42.7187 1295.12 43.0298 1294.87 43.2969C1294.62 43.5611 1294.31 43.767 1293.94 43.9148C1293.56 44.0597 1293.14 44.1321 1292.66 44.1321ZM1301.79 39.0526L1300.63 39.2571C1300.59 39.1094 1300.51 38.9687 1300.4 38.8352C1300.3 38.7017 1300.16 38.5923 1299.99 38.5071C1299.81 38.4219 1299.59 38.3793 1299.33 38.3793C1298.96 38.3793 1298.66 38.4602 1298.42 38.6222C1298.18 38.7812 1298.06 38.9872 1298.06 39.2401C1298.06 39.4588 1298.14 39.6349 1298.3 39.7685C1298.46 39.902 1298.73 40.0114 1299.09 40.0966L1300.13 40.3352C1300.73 40.4744 1301.18 40.6889 1301.47 40.9787C1301.77 41.2685 1301.92 41.6449 1301.92 42.108C1301.92 42.5 1301.8 42.8494 1301.58 43.1562C1301.35 43.4602 1301.04 43.6989 1300.63 43.8722C1300.23 44.0455 1299.77 44.1321 1299.24 44.1321C1298.51 44.1321 1297.91 43.9759 1297.45 43.6634C1296.98 43.348 1296.7 42.9006 1296.59 42.321L1297.83 42.1335C1297.9 42.4545 1298.06 42.6974 1298.3 42.8622C1298.54 43.0241 1298.85 43.1051 1299.23 43.1051C1299.65 43.1051 1299.98 43.0185 1300.23 42.8452C1300.48 42.669 1300.61 42.4545 1300.61 42.2017C1300.61 41.9972 1300.53 41.8253 1300.38 41.6861C1300.23 41.5469 1300 41.4418 1299.68 41.3707L1298.58 41.1278C1297.96 40.9886 1297.51 40.767 1297.22 40.4631C1296.93 40.1591 1296.79 39.7741 1296.79 39.3082C1296.79 38.9219 1296.89 38.5838 1297.11 38.294C1297.33 38.0043 1297.62 37.7784 1298 37.6165C1298.39 37.4517 1298.82 37.3693 1299.31 37.3693C1300.02 37.3693 1300.58 37.5227 1300.98 37.8295C1301.39 38.1335 1301.66 38.5412 1301.79 39.0526ZM1306.14 44.1321C1305.49 44.1321 1304.94 43.9943 1304.47 43.7188C1304.01 43.4403 1303.65 43.0497 1303.4 42.5469C1303.15 42.0412 1303.02 41.4489 1303.02 40.7699C1303.02 40.0994 1303.15 39.5085 1303.4 38.9972C1303.65 38.4858 1304 38.0866 1304.46 37.7997C1304.91 37.5128 1305.44 37.3693 1306.05 37.3693C1306.42 37.3693 1306.78 37.4304 1307.12 37.5526C1307.47 37.6747 1307.78 37.8665 1308.06 38.1278C1308.33 38.3892 1308.55 38.7287 1308.71 39.1463C1308.87 39.5611 1308.95 40.0653 1308.95 40.6591V41.1108H1303.74V40.1562H1307.7C1307.7 39.821 1307.63 39.5241 1307.49 39.2656C1307.36 39.0043 1307.17 38.7983 1306.92 38.6477C1306.67 38.4972 1306.39 38.4219 1306.06 38.4219C1305.7 38.4219 1305.39 38.5099 1305.12 38.6861C1304.86 38.8594 1304.65 39.0866 1304.51 39.3679C1304.36 39.6463 1304.29 39.9489 1304.29 40.2756V41.0213C1304.29 41.4588 1304.37 41.831 1304.52 42.1378C1304.68 42.4446 1304.9 42.679 1305.18 42.8409C1305.45 43 1305.78 43.0795 1306.15 43.0795C1306.39 43.0795 1306.61 43.0455 1306.81 42.9773C1307.01 42.9062 1307.18 42.8011 1307.33 42.6619C1307.47 42.5227 1307.58 42.3509 1307.66 42.1463L1308.87 42.3636C1308.77 42.7187 1308.6 43.0298 1308.35 43.2969C1308.1 43.5611 1307.79 43.767 1307.41 43.9148C1307.04 44.0597 1306.62 44.1321 1306.14 44.1321ZM1310.36 44V37.4545H1311.59V38.4943H1311.66C1311.78 38.142 1311.99 37.8651 1312.29 37.6634C1312.59 37.4588 1312.94 37.3565 1313.32 37.3565C1313.4 37.3565 1313.5 37.3594 1313.6 37.3651C1313.71 37.3707 1313.8 37.3778 1313.86 37.3864V38.6051C1313.81 38.5909 1313.72 38.5753 1313.59 38.5582C1313.46 38.5384 1313.33 38.5284 1313.2 38.5284C1312.9 38.5284 1312.63 38.5923 1312.39 38.7202C1312.16 38.8452 1311.98 39.0199 1311.84 39.2443C1311.7 39.4659 1311.63 39.7187 1311.63 40.0028V44H1310.36ZM1320.76 37.4545L1318.39 44H1317.03L1314.65 37.4545H1316.02L1317.68 42.4915H1317.74L1319.4 37.4545H1320.76ZM1324.56 44.1321C1323.92 44.1321 1323.36 43.9943 1322.89 43.7188C1322.43 43.4403 1322.07 43.0497 1321.82 42.5469C1321.57 42.0412 1321.45 41.4489 1321.45 40.7699C1321.45 40.0994 1321.57 39.5085 1321.82 38.9972C1322.07 38.4858 1322.43 38.0866 1322.88 37.7997C1323.33 37.5128 1323.86 37.3693 1324.47 37.3693C1324.84 37.3693 1325.2 37.4304 1325.54 37.5526C1325.89 37.6747 1326.2 37.8665 1326.48 38.1278C1326.75 38.3892 1326.97 38.7287 1327.13 39.1463C1327.29 39.5611 1327.37 40.0653 1327.37 40.6591V41.1108H1322.17V40.1562H1326.12C1326.12 39.821 1326.05 39.5241 1325.92 39.2656C1325.78 39.0043 1325.59 38.7983 1325.34 38.6477C1325.1 38.4972 1324.81 38.4219 1324.48 38.4219C1324.12 38.4219 1323.81 38.5099 1323.54 38.6861C1323.28 38.8594 1323.07 39.0866 1322.93 39.3679C1322.79 39.6463 1322.72 39.9489 1322.72 40.2756V41.0213C1322.72 41.4588 1322.79 41.831 1322.95 42.1378C1323.1 42.4446 1323.32 42.679 1323.6 42.8409C1323.88 43 1324.2 43.0795 1324.57 43.0795C1324.81 43.0795 1325.03 43.0455 1325.23 42.9773C1325.43 42.9062 1325.6 42.8011 1325.75 42.6619C1325.89 42.5227 1326 42.3509 1326.08 42.1463L1327.29 42.3636C1327.19 42.7187 1327.02 43.0298 1326.77 43.2969C1326.52 43.5611 1326.21 43.767 1325.83 43.9148C1325.46 44.0597 1325.04 44.1321 1324.56 44.1321ZM1331.23 44.1278C1330.7 44.1278 1330.23 43.9929 1329.82 43.723C1329.41 43.4503 1329.08 43.0625 1328.85 42.5597C1328.61 42.054 1328.5 41.4474 1328.5 40.7401C1328.5 40.0327 1328.61 39.4276 1328.85 38.9247C1329.09 38.4219 1329.42 38.0369 1329.83 37.7699C1330.25 37.5028 1330.72 37.3693 1331.24 37.3693C1331.65 37.3693 1331.97 37.4375 1332.22 37.5739C1332.47 37.7074 1332.66 37.8636 1332.8 38.0426C1332.94 38.2216 1333.05 38.3793 1333.12 38.5156H1333.2V35.2727H1334.48V44H1333.23V42.9815H1333.12C1333.05 43.1207 1332.94 43.2798 1332.79 43.4588C1332.65 43.6378 1332.45 43.794 1332.2 43.9276C1331.95 44.0611 1331.63 44.1278 1331.23 44.1278ZM1331.51 43.0412C1331.88 43.0412 1332.19 42.9446 1332.44 42.7514C1332.7 42.5554 1332.89 42.2841 1333.02 41.9375C1333.16 41.5909 1333.22 41.1875 1333.22 40.7273C1333.22 40.2727 1333.16 39.875 1333.03 39.5341C1332.9 39.1932 1332.7 38.9276 1332.45 38.7372C1332.2 38.5469 1331.89 38.4517 1331.51 38.4517C1331.13 38.4517 1330.81 38.5511 1330.56 38.75C1330.3 38.9489 1330.11 39.2202 1329.98 39.5639C1329.85 39.9077 1329.78 40.2955 1329.78 40.7273C1329.78 41.1648 1329.85 41.5582 1329.98 41.9077C1330.11 42.2571 1330.3 42.5341 1330.56 42.7386C1330.82 42.9403 1331.14 43.0412 1331.51 43.0412Z" fill="#FFFCFF"/>
</svg>
