<svg width="40" height="40" viewBox="0 0 40 40" fill="none" xmlns="http://www.w3.org/2000/svg">
<rect x="1" y="1" width="38" height="38" rx="19" stroke="#FFFCFF" stroke-width="2"/>
<path d="M20.2268 25.3333L20.2268 26.5404L21.0804 25.6868L24.4908 22.2764L24.1372 21.9229L24.4908 22.2764C24.5793 22.1879 24.7229 22.1879 24.8114 22.2764C24.8999 22.3649 24.8999 22.5086 24.8114 22.5971L20.1605 27.248C20.0719 27.3366 19.9284 27.3366 19.8398 27.248L19.4863 27.6016L19.8398 27.248L15.189 22.5973C15.1445 22.5528 15.1224 22.4955 15.1224 22.4369C15.1224 22.3782 15.1445 22.3209 15.1888 22.2765C15.2774 22.188 15.4209 22.188 15.5095 22.2765L15.5095 22.2765L18.9199 25.6868L19.7734 26.5403L19.7734 25.3333L19.7734 12.912C19.7734 12.7869 19.875 12.6853 20.0001 12.6853C20.1253 12.6853 20.2268 12.7868 20.2268 12.912L20.2268 25.3333Z" fill="#FFFCFF" stroke="#FFFCFF"/>
</svg>
