<svg width="1440" height="146" viewBox="0 0 1440 146" fill="none" xmlns="http://www.w3.org/2000/svg">
<path d="M0 20.8938L48.4195 10.7718C124.756 -5.18625 203.768 -3.04866 279.13 17.0134L316.327 26.9154C383.493 44.7958 454.358 43.2253 520.666 22.3868C587.959 1.23882 659.923 -0.0582485 727.934 18.651L777.877 32.3898C830.591 46.8909 885.327 52.6482 939.905 49.4324L1027.47 44.2732C1058.75 42.4298 1089.8 37.649 1120.19 29.994L1154.68 21.3058C1236.24 0.761541 1321.67 1.12426 1403.05 22.3604L1440 32.002V141.016L0 145.502V20.8938Z" fill="url(#paint0_linear_95_4657)" fill-opacity="0.5"/>
<defs>
<linearGradient id="paint0_linear_95_4657" x1="-75.5525" y1="64.7559" x2="1748.71" y2="64.7559" gradientUnits="userSpaceOnUse">
<stop stop-color="#240D3F"/>
<stop offset="0.5" stop-color="#302399"/>
<stop offset="1" stop-color="#5F23A5"/>
</linearGradient>
</defs>
</svg>
