<svg width="1440" height="149" viewBox="0 0 1440 149" fill="none" xmlns="http://www.w3.org/2000/svg">
<path d="M0 0.501953L98.0261 20.8944C159.266 33.6343 222.553 32.8175 283.444 18.5013C334.059 6.60103 386.417 4.00843 437.96 10.8501L476.714 15.9942C521.366 21.9213 566.615 21.7873 611.232 15.5958L637.298 11.9786C692.011 4.38604 747.63 6.42342 801.641 17.9986C867.779 32.1729 936.187 32.0156 1002.26 17.5372L1004.18 17.1172C1054.4 6.11109 1106.07 3.20159 1157.21 8.49877L1208.13 13.7728C1242.29 17.3103 1276.71 17.32 1310.87 13.802L1440 0.501953V148.502H0V0.501953Z" fill="url(#paint0_linear_95_4659)" fill-opacity="0.8"/>
<defs>
<linearGradient id="paint0_linear_95_4659" x1="0" y1="74.502" x2="1440" y2="74.502" gradientUnits="userSpaceOnUse">
<stop stop-color="#5F23A5"/>
<stop offset="0.5" stop-color="#302399"/>
<stop offset="1" stop-color="#240D3F"/>
</linearGradient>
</defs>
</svg>
